<svg xmlns="http://www.w3.org/2000/svg" viewBox="0 0 1243 740.14"><defs><style>.cls-1{fill:#bfbfbf20;}.cls-2{fill:#1200f20f;}.cls-3{stroke:#00000010;stroke-miterlimit:10;fill:#ffffff}</style></defs><g id="ramp_and_taxiways" data-name="ramp and taxiways"><polygon class="cls-1" points="795.9 488.14 156 488.14 156 551.14 839 551.14 795.9 488.14"/><path class="cls-1" d="M891.8,579" transform="translate(-15.8 -27.86)"/><rect class="cls-1" y="537.14" width="162" height="195"/><rect class="cls-1" x="137" y="251.14" width="19" height="286"/><rect class="cls-1" x="293" y="251.14" width="12" height="237"/><rect class="cls-1" x="387" y="251.14" width="12" height="237"/><rect class="cls-1" x="1100" y="251.14" width="21" height="237"/><rect class="cls-1" x="156" y="467.14" width="965" height="9"/><rect class="cls-1" x="368" y="551.14" width="260" height="24"/><polygon class="cls-1" points="339.54 740.14 946.55 733.08 813 551.14 339.54 551.14 339.54 740.14"/><rect class="cls-1" x="1100" y="551.14" width="143" height="174"/><rect class="cls-1" x="1021.45" y="664.77" width="79.49" height="15.5"/><rect class="cls-1" x="1100" y="503.14" width="143" height="48"/><polygon class="cls-1" points="137 528.14 137 467.14 0 537.14 137 537.14 137 528.14"/><polygon class="cls-1" points="1100 503.14 1243 503.14 1121 467.14 1121 488.14 1100 488.14 1100 503.14"/><polygon class="cls-1" points="813 251.14 1004 488.14 1020 488.14 828 251.14 813 251.14"/><polygon class="cls-1" points="1012.3 691.66 946.55 733.08 813 551.14 839 551.14 954.2 705.52 970.48 694.49 862 551.14 876 551.14 983.63 685.68 998.86 674.75 1012.3 691.66"/><path class="cls-1" d="M573.8,190.5l54,71,183,234,16.71,20.86,19.29.14-34-39-308-399,5.15-3,5.15-3-3.53-3.94-3.52-3.94L484.8,77.5l17,24,29,37.5c9.67,12.5,33.33,39,43,51.5" transform="translate(-15.8 -27.86)"/><polygon class="cls-1" points="616.67 334.81 691.12 334.81 700.4 346.68 616.67 346.68 616.67 334.81"/><circle class="cls-1" cx="603.33" cy="341.31" r="15.83"/><circle class="cls-1" cx="424" cy="196.14" r="15.83"/><rect class="cls-2" x="393" y="551.14" width="67.25" height="17"/><rect class="cls-2" x="526" y="692.14" width="33" height="33"/><rect class="cls-2" x="50" y="575.14" width="45" height="117"/><rect class="cls-2" x="12" y="657.45" width="38" height="34.69"/><rect class="cls-2" x="1131" y="556.14" width="32" height="85"/><rect class="cls-2" x="1135" y="653.64" width="72" height="26.63"/><polygon class="cls-1" points="831 488.64 876.06 551.14 862.44 551.64 811.61 488.39 831 488.64"/><rect class="cls-1" x="807.52" y="501.47" width="10.61" height="21.64" transform="translate(349.25 -365.64) rotate(30)"/><rect class="cls-1" x="94.2" y="640.32" width="355.17" height="11.53" transform="translate(-278.64 164.94) rotate(-26.89)"/><polygon class="cls-1" points="1032.25 664.77 1100.95 664.77 1100 487.97 1003.83 487.97 1032.25 664.77"/><rect class="cls-1" x="417.79" y="205.96" width="12.41" height="28.62"/><circle class="cls-1" cx="478.39" cy="138.79" r="15.83"/><polygon class="cls-1" points="486.95 132.85 539.88 132.85 546.48 144.73 486.95 144.73 486.95 132.85"/></g><g id="runways"><rect class="cls-3" x="339.94" y="361.19" width="860.88" height="24.69" transform="translate(568.73 -490.07) rotate(51.6)"/><rect class="cls-3" x="118" y="230.14" width="1009" height="20"/><rect class="cls-3" x="118" y="431.64" width="1009" height="20"/></g></svg>