<svg id="Layer_1" data-name="Layer 1" xmlns="http://www.w3.org/2000/svg" viewBox="0 0 614.38 610"><defs><style>.cls-1{fill:#fff;}.cls-2{fill:#ee1e3a;}.cls-3{fill:#231f20;}</style></defs><circle class="cls-1" cx="308.38" cy="305" r="305"/><rect class="cls-2" x="135.1" y="141" width="51" height="51" rx="12"/><path class="cls-3" d="M327.7,153.31c-4.78,7.57-9.37,15.2-14.3,22.6-11.07,16.58-22.31,33.06-33.48,49.57-13.44,19.86-27,39.66-40.32,59.56-10.76,16-21.77,31.84-31.88,48.24-6.17,10-12.79,20.38-15.78,31.51-6.64,24.71-1.87,47.8,14.73,68.13,19.37,23.71,44.68,31.35,73.76,26.83,18.2-2.83,33.56-12.32,45.25-26.87,14.92-18.56,20.82-39.93,15.84-63.14-4.72-22.05-16.84-39.31-37-51.09-20.5-12-41.54-13-63.66-6.82-1.05.29-2.13.43-4.72.95,4.37-6.93,8-12.87,11.8-18.64q17.15-25.75,34.46-51.39,24-35.66,48.2-71.24c3.15-4.65,6.72-9.07,9.35-14,2.38-4.47,5.5-5.44,10.28-5.43,51.86.18,103.73.12,155.59.13h8.45c-3.16,5.07-5.64,9.28-8.34,13.33-7.72,11.56-15.59,23-23.26,34.6-2.06,3.11-4.49,4.2-8.27,4.18-30-.17-60,.34-90-.35-9.25-.21-15.12,2.22-20,10.12-10.12,16.37-21,32.27-31.63,48.32-1.59,2.41-3.46,4.63-5.4,7.2,6.91,5.16,13.55,10.29,20.38,15.17,13.86,9.88,22.83,23.84,31.4,38C390.57,341.52,394.65,362.64,395,384c.46,25.57-7.2,49.27-21,71.08-10.54,16.61-24.58,29.59-40.75,40-16.4,10.54-35.16,16-54.44,18.14-33.18,3.7-63.37-5.76-89.78-25.38a124.9,124.9,0,0,1-44.2-59.57c-9.29-26.17-10-52.18-3.22-78.74,5-19.5,16.49-35.62,27.36-52q20.44-30.87,41.11-61.6,20-29.87,40.09-59.7c4.48-6.69,8.72-13.56,13.39-20.11,1.24-1.74,3.64-3.72,5.53-3.74,18.94-.21,37.88,0,56.82,0C326.28,152.38,326.65,152.75,327.7,153.31Z"/></svg>