<?xml version="1.0" standalone="no"?>
<!DOCTYPE svg PUBLIC "-//W3C//DTD SVG 20010904//EN"
 "http://www.w3.org/TR/2001/REC-SVG-20010904/DTD/svg10.dtd">
<svg version="1.0" xmlns="http://www.w3.org/2000/svg"
 width="108.000000pt" height="108.000000pt" viewBox="0 0 108.000000 108.000000"
 preserveAspectRatio="xMidYMid meet">
<g transform="translate(0.000000,108.000000) scale(0.100000,-0.100000)"
fill="#000000" stroke="none">
<path d="M398 788 c-88 -124 -150 -220 -169 -261 -57 -126 19 -281 155 -318
107 -29 228 33 273 138 34 83 6 202 -63 262 -19 17 -34 33 -34 36 0 2 16 29
35 60 l36 55 98 0 98 0 27 40 c14 22 26 42 26 45 0 3 -69 5 -152 5 l-153 -1
-93 -139 -92 -140 46 0 c109 0 173 -100 127 -197 -22 -47 -66 -73 -125 -73
-38 0 -54 6 -82 30 -41 36 -60 87 -51 132 4 18 58 106 119 197 62 92 116 172
120 179 5 9 -6 12 -48 12 l-54 0 -44 -62z"/>
</g>
</svg>
